<svg xmlns="http://www.w3.org/2000/svg" version="1.1" xmlns:xlink="http://www.w3.org/1999/xlink" xmlns:svgjs="http://svgjs.dev/svgjs" width="2000" height="1500" viewBox="0 0 2000 1500"><rect width="2000" height="1500" fill="#000000"></rect><g transform="matrix(0.75,0,0,0.75,249.78667664670684,-0.21332335329350371)"><svg viewBox="0 0 334 334" data-background-color="#ffffff" preserveAspectRatio="xMidYMid meet" height="2000" width="2000" xmlns="http://www.w3.org/2000/svg" xmlns:xlink="http://www.w3.org/1999/xlink"><g id="tight-bounds" transform="matrix(1,0,0,1,0.04749999999998522,0.04750000000001364)"><svg viewBox="0 0 333.90454557049503 333.90454557049503" height="333.90454557049503" width="333.90454557049503"><g><svg></svg></g><g><svg viewBox="0 0 333.90454557049503 333.90454557049503" height="333.90454557049503" width="333.90454557049503"><g><path d="M0 166.952c0-92.205 74.747-166.952 166.952-166.952 92.205 0 166.952 74.747 166.953 166.952 0 92.205-74.747 166.952-166.953 166.953-92.205 0-166.952-74.747-166.952-166.953zM166.952 330.191c90.155 0 163.239-73.085 163.239-163.239 0-90.155-73.085-163.239-163.239-163.239-90.155 0-163.239 73.085-163.239 163.239 0 90.155 73.085 163.239 163.239 163.239z" data-fill-palette-color="tertiary" fill="#ffffff" stroke="transparent"></path><ellipse rx="160.27418187383762" ry="160.27418187383762" cx="166.95227278524752" cy="166.95227278524752" fill="#ffffff" stroke="transparent" stroke-width="0" fill-opacity="1" data-fill-palette-color="tertiary"></ellipse></g><g transform="matrix(1,0,0,1,71.18303737024844,71.17305217166896)"><svg viewBox="0 0 191.53847082999815 191.55844122715712" height="191.55844122715712" width="191.53847082999815"><g><svg viewBox="0 0 191.53847082999815 191.55844122715712" height="191.55844122715712" width="191.53847082999815"><g><svg viewBox="0 0 213.1584412271571 213.18066578972486" height="191.55844122715712" width="191.53847082999815"><g transform="matrix(1,0,0,1,0,128.2253884731551)"><svg viewBox="0 0 213.1584412271571 84.95527731656975" height="84.95527731656975" width="213.1584412271571"><g id="textblocktransform"><svg viewBox="0 0 213.1584412271571 84.95527731656975" height="84.95527731656975" width="213.1584412271571" id="textblock"><g><svg viewBox="0 0 213.1584412271571 45.82081711675776" height="45.82081711675776" width="213.1584412271571"><g transform="matrix(1,0,0,1,0,0)"><svg width="213.1584412271571" viewBox="2 -37.5 232.58 50" height="45.82081711675776" data-palette-color="#ffffff"><path d="M13.4-0.95L13.4-0.95 15.35-1.05 15.5-0.55Q15.45-0.55 14.8-0.4L14.8-0.4Q13.3-0.05 11.45-0.05L11.45-0.05Q9.75-0.15 8.35-0.63 6.95-1.1 5.75-2.63 4.55-4.15 4.55-6.55L4.55-6.55 4.55-24.1 2-24.1 2.4-24.5 4.6-24.95 5-29.75 7.8-30 7.8-25 13.85-25 13.85-24.1 7.8-24.1 7.8-7.4Q7.8-3.6 9.4-2.27 11-0.95 13.4-0.95ZM29.12 0.2Q23.9 0.2 20.67-2.8 17.45-5.8 17.45-11.98 17.45-18.15 20.87-21.68 24.3-25.2 29.5-25.2 34.7-25.2 37.95-22.2 41.2-19.2 41.2-13.03 41.2-6.85 37.77-3.33 34.35 0.2 29.12 0.2ZM29.45-24.3Q25.7-24.3 23.2-21.05 20.7-17.8 20.7-12.23 20.7-6.65 23.07-3.68 25.45-0.7 29.2-0.7 32.95-0.7 35.45-3.95 37.95-7.2 37.95-12.75 37.95-18.3 35.57-21.3 33.2-24.3 29.45-24.3ZM47.39-23.95L44.79-24.2 44.74-24.95 51.49-25 51.49-7.6Q51.49-5.65 52.05-4.23 52.59-2.8 53.27-2.15 53.95-1.5 54.84-1.15L54.84-1.15Q56.24-0.65 57.2-0.75L57.2-0.75Q60.24-0.8 64.14-3.9L64.14-3.9 64.14-23.25Q63.95-23.85 63.3-23.95L63.3-23.95 60.69-24.2Q60.64-24.5 60.64-24.95L60.64-24.95 67.39-25 67.39-2.3Q67.5-1.05 68.19-1.05L68.19-1.05 71.19-0.9 71.14-0.15Q68.75 0.25 66.14 0.25L66.14 0.25Q65.55 0.2 64.84-0.43 64.14-1.05 64.14-2L64.14-2 64.14-2.9Q59.59 0.15 55.55 0.15L55.55 0.15Q53.84 0.15 51.55-0.7L51.55-0.7Q50.05-1.25 49.14-2.78 48.24-4.3 48.24-6.6L48.24-6.6 48.24-23.2Q48.24-23.45 47.97-23.68 47.7-23.9 47.39-23.95L47.39-23.95ZM81.24-22.95L81.24-22.95 81.24-18.95Q85.19-24.75 88.99-24.85L88.99-24.85Q89.29-24.85 89.59-24.85L89.59-24.85 92.39-24.5 91.09-21.5Q90.14-22.45 88.64-22.45L88.64-22.45Q84.99-22.4 81.24-17.6L81.24-17.6 81.24-1 85.49-0.75Q85.49-0.7 85.44 0L85.44 0 74.94 0.05Q74.94-0.4 74.99-0.65L74.99-0.65 77.59-1Q77.99-1.05 77.99-1.7L77.99-1.7 77.99-23.4Q77.89-23.75 77.69-23.75L77.69-23.75 74.69-23.85 74.74-24.55Q77.44-25 78.84-25 80.24-25 80.74-24.35 81.24-23.7 81.24-22.95ZM111.39 5.15L111.39 5.15Q111.39 0.45 117.09-2.9L117.09-2.9Q114.64-4.25 114.64-6.33 114.64-8.4 116.64-9.55L116.64-9.55Q112.74-11.3 112.74-16.95L112.74-16.95Q112.74-20.8 115.64-23 118.54-25.2 123.04-25.2L123.04-25.2Q125.14-25.2 127.04-24.7L127.04-24.7 135.39-25.2 135.29-23.3 129.34-23.65Q132.59-21.55 132.59-17.3 132.59-13.05 129.84-10.8 127.09-8.55 122.74-8.55L122.74-8.55Q119.84-8.55 117.99-9.05L117.99-9.05Q117.14-8.1 117.14-6.85L117.14-6.85Q117.14-4.6 118.94-3.6L118.94-3.6Q120.89-2.45 125.84-1.6L125.84-1.6Q126.99-1.4 127.51-1.28 128.04-1.15 129.04-0.95 130.04-0.75 130.54-0.58 131.04-0.4 131.81-0.08 132.59 0.25 132.99 0.55 133.39 0.85 133.89 1.3 134.39 1.75 134.64 2.3L134.64 2.3Q135.19 3.6 135.19 5.33 135.19 7.05 134.14 8.6 133.09 10.15 131.24 10.95L131.24 10.95Q127.64 12.5 122.99 12.5L122.99 12.5Q116.84 12.5 114.11 10.33 111.39 8.15 111.39 5.15ZM117.89-2.5L117.89-2.5Q114.64 1.05 114.64 4.45 114.64 7.85 116.61 9.73 118.59 11.6 122.64 11.6 126.69 11.6 129.31 10.05 131.94 8.5 131.94 5.1L131.94 5.1Q131.94 2.4 130.26 1.15 128.59-0.1 125.54-0.7L125.54-0.7Q119.39-1.85 117.89-2.5ZM122.89-24.55Q119.79-24.55 117.89-22.63 115.99-20.7 115.99-16.85 115.99-13 117.44-11.1 118.89-9.2 122.16-9.2 125.44-9.2 127.31-11.38 129.19-13.55 129.19-17.25L129.19-17.25Q129.19-24.55 122.89-24.55L122.89-24.55ZM141.49-23.95L138.89-24.2 138.84-24.95 145.59-25 145.59-7.6Q145.59-5.65 146.14-4.23 146.69-2.8 147.36-2.15 148.03-1.5 148.94-1.15L148.94-1.15Q150.34-0.65 151.28-0.75L151.28-0.75Q154.34-0.8 158.24-3.9L158.24-3.9 158.24-23.25Q158.04-23.85 157.39-23.95L157.39-23.95 154.78-24.2Q154.74-24.5 154.74-24.95L154.74-24.95 161.49-25 161.49-2.3Q161.59-1.05 162.29-1.05L162.29-1.05 165.29-0.9 165.24-0.15Q162.84 0.25 160.24 0.25L160.24 0.25Q159.64 0.2 158.94-0.43 158.24-1.05 158.24-2L158.24-2 158.24-2.9Q153.69 0.15 149.64 0.15L149.64 0.15Q147.94 0.15 145.64-0.7L145.64-0.7Q144.14-1.25 143.24-2.78 142.34-4.3 142.34-6.6L142.34-6.6 142.34-23.2Q142.34-23.45 142.06-23.68 141.78-23.9 141.49-23.95L141.49-23.95ZM175.83-22.95L175.83-22.95 175.83-1 179.58-0.75Q179.58-0.7 179.53 0L179.53 0 169.53 0.05Q169.53-0.4 169.58-0.65L169.58-0.65 172.18-1Q172.48-1 172.58-1.45L172.58-1.45 172.58-23.4Q172.48-23.75 172.28-23.75L172.28-23.75 169.28-23.85 169.33-24.55Q172.03-25 173.43-25 174.83-25 175.33-24.35 175.83-23.7 175.83-22.95ZM174.13-31.7Q173.13-31.7 172.58-32.33 172.03-32.95 172.03-33.98 172.03-35 172.61-35.63 173.18-36.25 174.18-36.25 175.18-36.25 175.81-35.63 176.43-35 176.43-33.93 176.43-32.85 175.78-32.27 175.13-31.7 174.13-31.7ZM204.73-35.45L204.73-35.45 204.73-2.6Q204.73-1.05 205.53-1.05L205.53-1.05 208.53-0.9 208.48-0.15Q206.08 0.25 203.48 0.25L203.48 0.25Q202.93 0.2 202.31-0.3 201.68-0.8 201.58-1.6L201.58-1.6Q198.73 0.2 194.98 0.2L194.98 0.2Q191.33 0.2 188.23-1.85L188.23-1.85Q186.48-3 185.41-5.48 184.33-7.95 184.33-11.5L184.33-11.5Q184.33-18.05 187.68-21.5L187.68-21.5Q191.23-25.2 195.78-25.2L195.78-25.2Q198.58-25.2 201.48-23.75L201.48-23.75 201.48-35.7Q201.48-36.25 201.18-36.25L201.18-36.25 198.13-36.35 198.18-37.05Q201.33-37.5 202.51-37.5 203.68-37.5 204.21-36.85 204.73-36.2 204.73-35.45ZM195.63-0.7L195.63-0.7Q198.68-0.7 201.48-2.05L201.48-2.05 201.48-22.95Q199.28-24.3 197.13-24.3L197.13-24.3Q192.83-24.3 190.21-21 187.58-17.7 187.58-11.55L187.58-11.55Q187.58-0.7 195.63-0.7ZM216.53-11.5L216.53-11.5Q216.53-0.7 224.93-0.7L224.93-0.7Q227.13-0.7 229.63-1.18 232.13-1.65 232.83-2.05L232.83-2.05 233.18-1.55Q232.03-0.8 229.4-0.3 226.78 0.2 224.6 0.2 222.43 0.2 220.7-0.25 218.98-0.7 217.18-1.85 215.38-3 214.33-5.45 213.28-7.9 213.28-11.45L213.28-11.45Q213.28-18.05 216.68-21.55L216.68-21.55Q220.23-25.2 224.93-25.2 229.63-25.2 232.1-22.6 234.58-20 234.58-15.3L234.58-15.3Q234.58-14.3 234.43-13.15L234.43-13.15 216.58-13.15Q216.53-12.6 216.53-11.5ZM231.63-15.65L231.63-15.65Q231.63-19.4 229.98-21.78 228.33-24.15 225.48-24.15L225.48-24.15Q221.78-24.15 219.23-20.9L219.23-20.9Q217.18-18.35 216.68-14.1L216.68-14.1 231.58-14.1Q231.63-14.65 231.63-15.65Z" opacity="1" transform="matrix(1,0,0,1,0,0)" fill="#000000" class="wordmark-text-0" data-fill-palette-color="quaternary" id="text-0"></path></svg></g></svg></g><g transform="matrix(1,0,0,1,0,56.63801233841346)"><svg viewBox="0 0 213.1584412271571 28.31726497815629" height="28.31726497815629" width="213.1584412271571"><g transform="matrix(1,0,0,1,0,0)"><svg width="213.1584412271571" viewBox="2.8999999999999995 -39.6 382.40000000000003 50.8" height="28.31726497815629" data-palette-color="#ffffff"><path d="M16 0.2Q11.9 0.2 8.93-1.58 5.95-3.35 4.42-6.28 2.9-9.2 2.9-12.65L2.9-12.65Q2.9-16.2 4.5-19.18 6.1-22.15 9.05-23.9 12-25.65 15.85-25.65L15.85-25.65Q19.25-25.65 21.95-24.28 24.65-22.9 26.15-20.45 27.65-18 27.65-14.85L27.65-14.85Q27.65-13.35 27.3-12.73 26.95-12.1 25.55-12.05L25.55-12.05 6.5-11.65Q6.5-9.75 7.65-7.75 8.8-5.75 10.93-4.4 13.05-3.05 15.85-3.05L15.85-3.05Q17.95-3.05 19.45-3.68 20.95-4.3 21.8-5.1 22.65-5.9 23.85-7.35L23.85-7.35Q24.2-7.8 24.95-7.8L24.95-7.8Q25.6-7.8 26.18-7.3 26.75-6.8 26.75-6.15L26.75-6.15Q26.75-5.65 26.35-5.1L26.35-5.1Q24.75-2.9 22.48-1.35 20.2 0.2 16 0.2L16 0.2ZM6.5-14.65L23.9-15.1Q24.4-15.1 24.4-15.8L24.4-15.8Q24.4-18.8 22-20.68 19.6-22.55 15.95-22.55L15.95-22.55Q13.2-22.55 11.05-21.15 8.9-19.75 7.7-17.85 6.5-15.95 6.5-14.65L6.5-14.65ZM88.05-2.6Q88.4-2.2 88.4-1.8L88.4-1.8Q88.4-1.05 87.8-0.53 87.2 0 86.45 0L86.45 0Q85.7 0 85.25-0.6L85.25-0.6Q82.1-4.7 77.5-10.6L77.5-10.6 70.45-0.55Q70 0.1 69.1 0.1L69.1 0.1Q68.3 0.1 67.72-0.43 67.15-0.95 67.15-1.65L67.15-1.65Q67.15-2 67.35-2.3L67.35-2.3Q69.35-5.05 75.3-13.45L75.3-13.45Q74.3-14.7 72.9-16.55L72.9-16.55Q70.4-19.7 67.85-23.05L67.85-23.05Q67.65-23.35 67.65-23.75L67.65-23.75Q67.65-24.3 68.32-24.88 69-25.45 69.65-25.45L69.65-25.45Q69.95-25.45 70.25-25.33 70.55-25.2 70.7-25L70.7-25 71.85-23.5Q75.5-18.85 77.35-16.45L77.35-16.45 83.3-24.95Q83.7-25.5 84.25-25.5L84.25-25.5Q85-25.5 85.67-24.88 86.35-24.25 86.35-23.6L86.35-23.6Q86.35-23.35 86.2-23.1L86.2-23.1 79.55-13.6 88.05-2.6ZM140.35-25.65Q143.7-25.65 146.47-24.23 149.25-22.8 150.9-19.93 152.55-17.05 152.55-12.85L152.55-12.85Q152.55-8.8 150.97-5.88 149.4-2.95 146.6-1.45 143.8 0.05 140.2 0.05L140.2 0.05Q137.25 0.05 134.85-0.8 132.45-1.65 131.3-2.5L131.3-2.5 131.15 2.55 130.95 9.6Q130.9 10.35 130.37 10.78 129.85 11.2 129 11.2L129 11.2Q128.1 11.2 127.62 10.73 127.15 10.25 127.15 9.45L127.15 9.45Q127.25 5.4 127.35 3.15L127.35 3.15 127.5-2.3Q127.65-8.25 127.65-17.55L127.65-17.55Q127.65-19.1 127.3-20.13 126.95-21.15 126.2-22.05L126.2-22.05Q126.15-22.1 125.92-22.33 125.7-22.55 125.7-23L125.7-23Q125.7-23.65 126.42-24.23 127.15-24.8 127.8-24.8L127.8-24.8Q128.15-24.8 128.42-24.63 128.7-24.45 128.75-24.4L128.75-24.4Q129.1-24.1 129.72-23.1 130.35-22.1 130.75-21.15L130.75-21.15Q131.95-22.9 134.4-24.28 136.85-25.65 140.35-25.65L140.35-25.65ZM140.15-3.15Q143.95-3.15 146.32-5.7 148.7-8.25 148.7-12.9L148.7-12.9Q148.7-17.75 146.25-20.05 143.8-22.35 140.2-22.35L140.2-22.35Q137.7-22.35 135.7-21.23 133.7-20.1 132.6-18.6 131.5-17.1 131.5-16.2L131.5-16.2Q131.5-10.7 131.45-6.75L131.45-6.75Q131.7-6.1 133.05-5.23 134.4-4.35 136.32-3.75 138.25-3.15 140.15-3.15L140.15-3.15ZM194.8-0.45Q193.95-0.45 193.42-0.9 192.9-1.35 192.9-2.2L192.9-2.2 192.6-37.8Q192.6-38.65 193.15-39.13 193.7-39.6 194.6-39.6L194.6-39.6Q195.45-39.6 195.95-39.13 196.45-38.65 196.45-37.85L196.45-37.85 196.7-2.2Q196.7-1.35 196.17-0.9 195.65-0.45 194.8-0.45L194.8-0.45ZM250.1 0.05Q244.45 0.05 240.72-2.95 237-5.95 237-12.35L237-12.35Q237-16.35 238.52-19.38 240.05-22.4 242.95-24.1 245.85-25.8 249.8-25.8L249.8-25.8Q253.6-25.8 256.62-24.23 259.65-22.65 261.37-19.63 263.1-16.6 263.1-12.4L263.1-12.4Q263.1-6.3 259.52-3.13 255.95 0.05 250.1 0.05L250.1 0.05ZM250-3.1Q254-3.1 256.62-5.48 259.25-7.85 259.25-12.45L259.25-12.45Q259.25-15.45 258.07-17.78 256.9-20.1 254.77-21.38 252.65-22.65 249.9-22.65L249.9-22.65Q245.8-22.65 243.32-19.85 240.85-17.05 240.85-12.45L240.85-12.45Q240.85-7.6 243.5-5.35 246.15-3.1 250-3.1L250-3.1ZM314-25.7Q317.2-25.7 319-23.68 320.8-21.65 320.8-18.75L320.8-18.75Q320.8-16 319.15-14.43 317.5-12.85 314.9-12.85L314.9-12.85Q313.9-12.85 313.47-13.15 313.05-13.45 313.05-14.25L313.05-14.25Q313.05-15.55 314.3-15.6L314.3-15.6Q317.55-15.9 317.55-18.8L317.55-18.8Q317.55-20.35 316.7-21.45 315.85-22.55 313.95-22.55L313.95-22.55Q311.95-22.55 310.47-20.85 309-19.15 308.15-16.63 307.3-14.1 307.15-11.65L307.15-11.65Q306.85-7.05 306.85-2.95L306.85-2.95Q306.85-0.9 306.47-0.25 306.1 0.4 305 0.4L305 0.4Q303.9 0.4 303.47-0.13 303.05-0.65 303.05-1.95L303.05-1.95 303-11.5Q303-14.8 302.5-20.2L302.5-20.2Q302.2-23.35 302.15-24.7L302.15-24.7Q302.1-25.5 302.6-25.93 303.1-26.35 304-26.35L304-26.35Q305.55-26.35 305.65-24.85L305.65-24.85Q305.95-21.7 306-18.7L306-18.7Q306.85-22 308.95-23.85 311.05-25.7 314-25.7L314-25.7ZM373.65 0.2Q369.55 0.2 366.57-1.58 363.6-3.35 362.07-6.28 360.55-9.2 360.55-12.65L360.55-12.65Q360.55-16.2 362.15-19.18 363.75-22.15 366.7-23.9 369.65-25.65 373.5-25.65L373.5-25.65Q376.9-25.65 379.6-24.28 382.3-22.9 383.8-20.45 385.3-18 385.3-14.85L385.3-14.85Q385.3-13.35 384.95-12.73 384.6-12.1 383.2-12.05L383.2-12.05 364.15-11.65Q364.15-9.75 365.3-7.75 366.45-5.75 368.57-4.4 370.7-3.05 373.5-3.05L373.5-3.05Q375.6-3.05 377.1-3.68 378.6-4.3 379.45-5.1 380.3-5.9 381.5-7.35L381.5-7.35Q381.85-7.8 382.6-7.8L382.6-7.8Q383.25-7.8 383.82-7.3 384.4-6.8 384.4-6.15L384.4-6.15Q384.4-5.65 384-5.1L384-5.1Q382.4-2.9 380.12-1.35 377.85 0.2 373.65 0.2L373.65 0.2ZM364.15-14.65L381.55-15.1Q382.05-15.1 382.05-15.8L382.05-15.8Q382.05-18.8 379.65-20.68 377.25-22.55 373.6-22.55L373.6-22.55Q370.85-22.55 368.7-21.15 366.55-19.75 365.35-17.85 364.15-15.95 364.15-14.65L364.15-14.65Z" opacity="1" transform="matrix(1,0,0,1,0,0)" fill="#000000" class="slogan-text-1" data-fill-palette-color="quaternary" id="text-1"></path></svg></g></svg></g></svg></g></svg></g><g transform="matrix(1,0,0,1,47.698574504467615,0)"><svg viewBox="0 0 117.76129221822188 117.4081932514994" height="117.4081932514994" width="117.76129221822188"><g><svg xmlns="http://www.w3.org/2000/svg" xmlns:xlink="http://www.w3.org/1999/xlink" version="1.1" x="0" y="0" viewBox="6.8999999999999995 6.969230769230769 66.22935329668132 66.03076923076924" style="enable-background:new 0 0 80 80;" xml:space="preserve" height="117.4081932514994" width="117.76129221822188" class="icon-icon-0" data-fill-palette-color="quaternary" id="icon-0"><path d="M65.6 7.8c-2.7 1.3-6.3 4.1-10.8 8.5l-2.5-0.7c0.4-0.9 0.3-2-0.5-2.8-0.5-0.5-1.1-0.7-1.7-0.7-0.5 0-1 0.1-1.4 0.4l-2.3 1.5L42.4 13c0.6-1 0.5-2.3-0.3-3.1C41.3 9.1 40 9 39 9.7l-2.6 1.7-3-0.8c-0.3-0.1-0.7 0-1 0.3l-5.6 5.6c-0.2 0.2-0.3 0.5-0.3 0.9s0.3 0.6 0.5 0.7L45 26.8c-4.1 4.6-8 9.5-10.9 13.5l-4.8-0.8c-0.3 0-0.6 0-0.9 0.3l-1.9 1.9c-0.2 0.2-0.3 0.6-0.3 0.9 0.1 0.3 0.3 0.6 0.6 0.7l4.1 1.7c0 0.1-0.1 0.1-0.1 0.2-0.2 0.4-0.1 0.9 0.2 1.2l2.5 2.5c0.2 0.2 0.4 0.3 0.7 0.3 0.2 0 0.3 0 0.5-0.1 0.1 0 0.1-0.1 0.2-0.1l1.7 4.2c0.1 0.3 0.4 0.5 0.7 0.6 0.1 0 0.1 0 0.2 0 0.3 0 0.5-0.1 0.7-0.3l1.9-1.9c0.2-0.2 0.3-0.5 0.3-0.9l-0.8-4.8c4-2.9 8.8-6.8 13.4-10.9l8.8 17.9c0.1 0.3 0.4 0.5 0.7 0.5 0.1 0 0.1 0 0.2 0 0.3 0 0.5-0.1 0.7-0.3l5.6-5.6c0.3-0.3 0.3-0.6 0.3-1l-0.8-3 1.7-2.6c0.7-1 0.5-2.3-0.3-3.1-0.8-0.8-2.1-0.9-3.1-0.3L66 33.6l1.5-2.3c0.6-1 0.5-2.3-0.3-3.1-0.5-0.5-1.1-0.7-1.7-0.7-0.4 0-0.7 0.1-1.1 0.2l-0.7-2.5c8.8-8.9 11.2-14.1 8.2-17.1C70.4 6.7 68.3 6.6 65.6 7.8z" fill="#000000" data-fill-palette-color="quaternary"></path><path d="M9.2 73H32c1.3 0 2.3-1 2.3-2.3v-7.3c-1.2 1.1-2.7 1.8-4.5 1.8H11.4c-1.7 0-3.3-0.7-4.5-1.8v7.3C6.9 72 7.9 73 9.2 73z" fill="#000000" data-fill-palette-color="quaternary"></path><path d="M11.4 63.2h18.4c2.5 0 4.5-2 4.5-4.5V56c0-1.3-1-2.3-2.3-2.3h-5.8v-1.1c0-1.8-1.5-3.4-3.4-3.4h-4.4c-1.8 0-3.4 1.5-3.4 3.4v1.1H9.2c-1.3 0-2.3 1-2.3 2.3v2.8C6.9 61.2 8.9 63.2 11.4 63.2zM17 52.5c0-0.7 0.6-1.4 1.4-1.4h4.4c0.7 0 1.4 0.6 1.4 1.4v1.1H17V52.5z" fill="#000000" data-fill-palette-color="quaternary"></path></svg></g></svg></g><g></g></svg></g></svg></g></svg></g></svg></g><defs></defs></svg><rect width="333.90454557049503" height="333.90454557049503" fill="none" stroke="none" visibility="hidden"></rect></g></svg></g></svg>